<svg width="24" height="24" viewBox="0 0 24 24" fill="none" xmlns="http://www.w3.org/2000/svg">
<path d="M12.5001 10.5H18.0001M16.0001 18L13.0001 22M13.0001 22H8.00007M13.0001 22H18.0001M8.48207 18H17.9721C19.0921 18 20.0001 17.108 20.0001 16.007C20.0001 14.5 17.9721 14.014 17.9721 14.014C17.9721 14.014 14.2841 12.596 10.0001 14C10.0001 14 9.86107 8.87302 7.71007 3.17002C7.28507 2.04602 5.90107 1.66202 4.88507 2.32702C4.55884 2.53868 4.30376 2.84348 4.1529 3.2019C4.00205 3.56031 3.96239 3.95579 4.03907 4.33702L6.49307 16.397C6.58915 16.8525 6.83957 17.2608 7.202 17.5529C7.56442 17.8449 8.0166 18.0029 8.48207 18Z" stroke="black" stroke-width="1.5" stroke-linecap="round" stroke-linejoin="round"/>
</svg>
