<svg width="27" height="27" viewBox="0 0 27 27" fill="none" xmlns="http://www.w3.org/2000/svg">
<path d="M0 25.0022H27V27H0V25.0022ZM14.6668 2.2574L16.0071 2.63698L16.9714 13.9145L22.6318 15.4828C23.0875 15.5942 23.4884 15.8736 23.7599 16.2687C24.0314 16.6639 24.1548 17.1479 24.1071 17.6304C24.052 17.9886 23.8979 18.3226 23.6635 18.592C23.4291 18.8615 23.1243 19.0548 22.7861 19.1487C22.4698 19.2333 22.138 19.2333 21.8218 19.1487L3.78964 14.1542C3.32706 14.0231 2.93301 13.7084 2.69293 13.2783C2.45286 12.8483 2.3861 12.3375 2.50714 11.8568L4.19464 5.36396L5.58321 5.74354L6.17143 10.9178L11.9571 12.536L14.6668 2.2574ZM13.7025 0.0598366C13.5458 0.107759 13.4034 0.19615 13.2887 0.316711C13.174 0.437272 13.0908 0.586049 13.0468 0.749073L10.6071 10.0887L7.8975 9.33956L7.41536 4.81457C7.38587 4.63211 7.30805 4.46172 7.19057 4.32239C7.07309 4.18306 6.92057 4.08025 6.75 4.02544L3.73179 3.1664C3.57402 3.12131 3.40741 3.12131 3.24964 3.1664C3.09405 3.21341 2.9524 3.30029 2.83779 3.41901C2.72318 3.53773 2.63931 3.68446 2.59393 3.84564L0.665357 11.3274C0.538543 11.818 0.506299 12.3296 0.570466 12.8332C0.634633 13.3367 0.793954 13.8222 1.03932 14.2619C1.28469 14.7016 1.6113 15.0869 2.00049 15.3958C2.38967 15.7047 2.8338 15.9311 3.3075 16.0621L21.3493 21.0566C21.851 21.203 22.3768 21.2389 22.8927 21.162C23.4087 21.0851 23.9033 20.897 24.3448 20.61C24.7863 20.323 25.1649 19.9433 25.4561 19.4955C25.7474 19.0477 25.9448 18.5416 26.0357 18.01C26.1635 17.0341 25.939 16.0437 25.405 15.2288C24.8711 14.414 24.0655 13.8321 23.1429 13.5948L18.7843 12.3862L17.8682 1.73798C17.8468 1.54108 17.7694 1.35522 17.6458 1.20403C17.5221 1.05284 17.3579 0.943155 17.1739 0.888918L14.2039 0.0298698C14.0455 -0.00995661 13.8802 -0.00995661 13.7218 0.0298698L13.7025 0.0598366Z" fill="black"/>
</svg>
