<svg width="11" height="21" viewBox="0 0 11 21" fill="none" xmlns="http://www.w3.org/2000/svg">
<path d="M4.25413 10.0032L10.4879 3.25278C10.8159 2.8955 11 2.41219 11 1.90842C11 1.40464 10.8159 0.921336 10.4879 0.564056C10.3242 0.385326 10.1295 0.243463 9.91487 0.146653C9.70028 0.0498424 9.47011 0 9.23764 0C9.00518 0 8.77501 0.0498424 8.56042 0.146653C8.34583 0.243463 8.15107 0.385326 7.98736 0.564056L0.520889 8.64928C0.355837 8.82656 0.224832 9.03746 0.13543 9.26983C0.0460288 9.5022 0 9.75145 0 10.0032C0 10.2549 0.0460288 10.5042 0.13543 10.7365C0.224832 10.9689 0.355837 11.1798 0.520889 11.3571L7.98736 19.5376C8.15191 19.7144 8.34705 19.8542 8.5616 19.9491C8.77615 20.044 9.00589 20.0921 9.23764 20.0906C9.4694 20.0921 9.69914 20.044 9.91369 19.9491C10.1282 19.8542 10.3234 19.7144 10.4879 19.5376C10.8159 19.1804 11 18.6971 11 18.1933C11 17.6895 10.8159 17.2062 10.4879 16.8489L4.25413 10.0032Z" fill="black"/>
</svg>
