<svg width="10" height="10" viewBox="0 0 10 10" fill="none" xmlns="http://www.w3.org/2000/svg">
<g clip-path="url(#clip0_32_188)">
<path d="M5 0.625C4.13471 0.625 3.28885 0.881589 2.56938 1.36232C1.84992 1.84305 1.28916 2.52633 0.958029 3.32576C0.626896 4.12519 0.540256 5.00485 0.709066 5.85352C0.877877 6.70219 1.29456 7.48174 1.90641 8.09359C2.51826 8.70545 3.29782 9.12212 4.14648 9.29094C4.99515 9.45975 5.87482 9.37311 6.67424 9.04197C7.47367 8.71084 8.15695 8.15008 8.63768 7.43062C9.11841 6.71115 9.375 5.86529 9.375 5C9.375 3.83968 8.91407 2.72688 8.09359 1.90641C7.27312 1.08594 6.16032 0.625 5 0.625ZM4.375 6.74687L2.8125 5.18437L3.30938 4.6875L4.375 5.75313L6.69063 3.4375L7.18938 3.93313L4.375 6.74687Z" fill="black"/>
</g>
<defs>
<clipPath id="clip0_32_188">
<rect width="10" height="10" fill="white"/>
</clipPath>
</defs>
</svg>
