<svg width="28" height="28" viewBox="0 0 28 28" fill="none" xmlns="http://www.w3.org/2000/svg">
<path d="M4.81232 23.855H23.1873C25.6363 23.855 26.8673 22.6485 26.8673 20.2345V7.77753C26.8673 5.36353 25.6363 4.14453 23.1873 4.14453H4.81232C2.36332 4.14453 1.13232 5.36353 1.13232 7.77753V20.2345C1.13232 22.6485 2.36282 23.855 4.81232 23.855ZM3.01932 7.88353C3.01932 6.66453 3.67582 6.03203 4.84732 6.03203H23.1638C24.3238 6.03203 24.9803 6.66453 24.9803 7.88353V8.86753H3.01932V7.88353ZM4.84732 21.9695C3.67532 21.9695 3.01932 21.348 3.01932 20.1295V11.5275H24.9803V20.129C24.9803 21.3475 24.3238 21.969 23.1638 21.969L4.84732 21.9695ZM6.19482 18.5H9.06632C9.75782 18.5 10.2148 18.043 10.2148 17.375V15.207C10.2148 14.551 9.75782 14.082 9.06632 14.082H6.19482C5.50332 14.082 5.04632 14.551 5.04632 15.207V17.375C5.04632 18.043 5.50332 18.5 6.19482 18.5Z" fill="black"/>
</svg>
