<svg width="29" height="29" viewBox="0 0 29 29" fill="none" xmlns="http://www.w3.org/2000/svg">
<path d="M1.8125 25.375H27.1875V27.1875H1.8125V25.375ZM12.2162 4.66719L17.3728 12.0441L18.0978 13.0862L19.3212 12.76L23.4175 11.6634C23.7498 11.5729 24.1002 11.5729 24.4325 11.6634C24.6926 11.729 24.933 11.8563 25.1333 12.0346C25.3337 12.2129 25.4881 12.4368 25.5834 12.6875C25.665 12.906 25.7007 13.1389 25.6881 13.3718C25.6755 13.6046 25.615 13.8324 25.5104 14.0408C25.4058 14.2492 25.2593 14.4338 25.08 14.583C24.9008 14.7322 24.6927 14.8427 24.4687 14.9078L7.51281 19.4391C7.21679 19.5247 6.90258 19.5247 6.60656 19.4391C6.32378 19.357 6.06725 19.2027 5.86226 18.9914C5.65726 18.78 5.51086 18.5189 5.4375 18.2338L5.21094 17.3909L4.53125 14.8444L3.86062 12.3613L5.16562 12.0078L7.25 14.8172L7.98406 15.7959L9.17125 15.4788L11.7087 14.7991L13.4669 14.3278L12.9956 12.5788L10.9475 5.0025L12.2162 4.66719ZM12.8325 2.71875C12.6836 2.68262 12.5283 2.68262 12.3794 2.71875L9.57906 3.47094C9.36216 3.5383 9.17847 3.68466 9.06434 3.88102C8.95021 4.07738 8.91398 4.30944 8.96281 4.53125L11.2284 13.0138L8.68187 13.6934L6.20781 10.4219C6.09016 10.265 5.9248 10.1505 5.73656 10.0956C5.58768 10.0595 5.43232 10.0595 5.28344 10.0956L2.465 10.875C2.24327 10.9349 2.05256 11.0768 1.93143 11.2719C1.81031 11.4671 1.7678 11.701 1.8125 11.9262L2.71875 15.3156L3.39844 17.8531L3.625 18.705C3.78413 19.3006 4.09745 19.8438 4.53339 20.2797C4.96934 20.7157 5.5125 21.029 6.10812 21.1881C6.70202 21.3457 7.32673 21.3457 7.92062 21.1881L24.8675 16.6569C25.6161 16.4652 26.2795 16.0299 26.7533 15.4195C27.2271 14.8091 27.4843 14.0583 27.4843 13.2856C27.4843 12.5129 27.2271 11.7622 26.7533 11.1518C26.2795 10.5414 25.6161 10.106 24.8675 9.91437C24.2258 9.74661 23.5517 9.74661 22.91 9.91437L18.8228 11.0109L13.3219 3.09031C13.207 2.91325 13.0339 2.78184 12.8325 2.71875Z" fill="black"/>
</svg>
