<svg width="32" height="32" viewBox="0 0 32 32" fill="none" xmlns="http://www.w3.org/2000/svg">
<path d="M20.0001 26.5067C20.0534 26.9067 19.9201 27.3333 19.6134 27.6133C19.49 27.7369 19.3435 27.835 19.1822 27.9019C19.0209 27.9688 18.848 28.0033 18.6734 28.0033C18.4988 28.0033 18.3259 27.9688 18.1646 27.9019C18.0033 27.835 17.8567 27.7369 17.7334 27.6133L12.3867 22.2667C12.2414 22.1245 12.1309 21.9506 12.0638 21.7586C11.9967 21.5666 11.9749 21.3618 12.0001 21.16V14.3333L5.61339 6.16C5.39686 5.88204 5.29916 5.52968 5.34164 5.17991C5.38411 4.83014 5.5633 4.5114 5.84005 4.29333C6.09339 4.10667 6.37339 4 6.66672 4H25.3334C25.6267 4 25.9067 4.10667 26.1601 4.29333C26.4368 4.5114 26.616 4.83014 26.6585 5.17991C26.7009 5.52968 26.6032 5.88204 26.3867 6.16L20.0001 14.3333V26.5067ZM9.38672 6.66667L14.6667 13.4133V20.7733L17.3334 23.44V13.4L22.6134 6.66667H9.38672Z" fill="black"/>
</svg>
