<svg width="12" height="12" viewBox="0 0 12 12" fill="none" xmlns="http://www.w3.org/2000/svg">
<path d="M4.10397 9.38085L10.6808 0.320713C10.836 0.106904 11.017 0 11.224 0C11.4309 0 11.612 0.106904 11.7672 0.320713C11.9224 0.534521 12 0.788597 12 1.08294C12 1.37728 11.9224 1.631 11.7672 1.8441L4.64718 11.6793C4.49198 11.8931 4.31091 12 4.10397 12C3.89703 12 3.71596 11.8931 3.56075 11.6793L0.223853 7.08241C0.0686483 6.8686 -0.00585002 6.61488 0.000358164 6.32125C0.00656635 6.02762 0.0875312 5.77354 0.243253 5.55902C0.398975 5.3445 0.58341 5.23759 0.796558 5.23831C1.00971 5.23902 1.19388 5.34592 1.34909 5.55902L4.10397 9.38085Z" fill="#5FDDB5"/>
</svg>
