<svg width="18" height="18" viewBox="0 0 18 18" fill="none" xmlns="http://www.w3.org/2000/svg">
<path d="M13.7601 7.3646C13.8351 7.292 13.8949 7.20514 13.9361 7.10908C13.9773 7.01303 13.999 6.90971 14 6.80516C14.0009 6.7006 13.9811 6.5969 13.9417 6.50011C13.9023 6.40332 13.844 6.31537 13.7703 6.2414C13.6967 6.16743 13.6091 6.10892 13.5126 6.06928C13.4162 6.02964 13.3128 6.00967 13.2086 6.01053C13.1043 6.01138 13.0013 6.03306 12.9055 6.07428C12.8097 6.11551 12.7231 6.17545 12.6507 6.25063L9.50444 9.40567L6.35928 6.25063C6.28742 6.17326 6.20076 6.11121 6.10447 6.06817C6.00818 6.02513 5.90423 6.00199 5.79883 6.00012C5.69343 5.99826 5.58874 6.01771 5.49099 6.05731C5.39325 6.09692 5.30446 6.15586 5.22992 6.23064C5.15538 6.30541 5.09661 6.39448 5.05713 6.49253C5.01765 6.59058 4.99826 6.69561 5.00012 6.80134C5.00198 6.90707 5.02505 7.01134 5.06796 7.10793C5.11086 7.20453 5.17272 7.29146 5.24984 7.36355L8.39291 10.5196L5.24775 13.6747C5.10909 13.824 5.0336 14.0214 5.03719 14.2254C5.04078 14.4294 5.12316 14.624 5.26698 14.7683C5.41081 14.9126 5.60484 14.9952 5.8082 14.9988C6.01157 15.0024 6.20838 14.9267 6.35719 14.7876L9.50444 11.6326L12.6496 14.7887C12.7984 14.9278 12.9952 15.0035 13.1986 14.9999C13.402 14.9963 13.596 14.9136 13.7398 14.7694C13.8836 14.6251 13.966 14.4304 13.9696 14.2264C13.9732 14.0224 13.8977 13.825 13.759 13.6757L10.616 10.5196L13.7601 7.3646Z" fill="#F07070"/>
</svg>
