<svg width="32" height="33" viewBox="0 0 32 33" fill="none" xmlns="http://www.w3.org/2000/svg">
<path d="M26.1333 28.875L17.7333 20.2125C17.0667 20.7625 16.3 21.1979 15.4333 21.5187C14.5667 21.8396 13.6444 22 12.6667 22C10.2444 22 8.19467 21.1347 6.51733 19.404C4.84 17.6733 4.00089 15.5595 4 13.0625C3.99911 10.5655 4.83822 8.45167 6.51733 6.721C8.19645 4.99033 10.2462 4.125 12.6667 4.125C15.0871 4.125 17.1373 4.99033 18.8173 6.721C20.4973 8.45167 21.336 10.5655 21.3333 13.0625C21.3333 14.0708 21.1778 15.0219 20.8667 15.9156C20.5556 16.8094 20.1333 17.6 19.6 18.2875L28 26.95L26.1333 28.875ZM12.6667 19.25C14.3333 19.25 15.7502 18.6487 16.9173 17.446C18.0844 16.2433 18.6676 14.7822 18.6667 13.0625C18.6658 11.3428 18.0827 9.88213 16.9173 8.68038C15.752 7.47863 14.3351 6.87683 12.6667 6.875C10.9982 6.87317 9.58178 7.47496 8.41733 8.68038C7.25289 9.88579 6.66933 11.3465 6.66667 13.0625C6.664 14.7785 7.24756 16.2397 8.41733 17.446C9.58711 18.6523 11.0036 19.2537 12.6667 19.25Z" fill="black"/>
</svg>
