<svg width="24" height="24" viewBox="0 0 24 24" fill="none" xmlns="http://www.w3.org/2000/svg">
<path d="M7 21C6.45 21 5.97933 20.8043 5.588 20.413C5.19667 20.0217 5.00067 19.5507 5 19V8C5 7.45 5.196 6.97933 5.588 6.588C5.98 6.19667 6.45067 6.00067 7 6H9V4C9 3.45 9.196 2.97933 9.588 2.588C9.98 2.19667 10.4507 2.00067 11 2H13C13.55 2 14.021 2.196 14.413 2.588C14.805 2.98 15.0007 3.45067 15 4V6H17C17.55 6 18.021 6.196 18.413 6.588C18.805 6.98 19.0007 7.45067 19 8V19C19 19.55 18.8043 20.021 18.413 20.413C18.0217 20.805 17.5507 21.0007 17 21C17 21.2833 16.904 21.521 16.712 21.713C16.52 21.905 16.2827 22.0007 16 22C15.7173 21.9993 15.48 21.9033 15.288 21.712C15.096 21.5207 15 21.2833 15 21H9C9 21.2833 8.904 21.521 8.712 21.713C8.52 21.905 8.28267 22.0007 8 22C7.71733 21.9993 7.48 21.9033 7.288 21.712C7.096 21.5207 7 21.2833 7 21ZM7 19H17V8H7V19ZM9 18H11V9H9V18ZM13 18H15V9H13V18ZM11 6H13V4H11V6Z" fill="black"/>
</svg>
